PathFileType	4	(X/Y/Z)	E:\Qualisys_Data\Carbon_Farble_Plate\Data\Amateur_Runner\S2\T2\S2T2V21_c3d.trc
DataRate	CameraRate	NumFrames	NumMarkers	Units	OrigDataRate	OrigDataStartFrame	OrigNumFrames
200.000000	200.000000	4	39	mm	200.000000	195	313
Frame#	Time	LSHO			RSHO			LICST			RICST			LASIS			LHEEL			RASIS			LTROC			RTROC			SACR			LTH1			LSK4			LTH2			LTH3			RHM5			LSK2			LTH4			RTH1			LTOE			RTH2			RTH3			RTH4			LLEP			RLEP			LSK1			LSK3			RSK1			LHM5			RSK2			LFT1			RSK3			RSK4			LLME			RLME			RTOE			RHEEL			RFT1			RFT2			LFT2			
		X1	Y1	Z1	X2	Y2	Z2	X3	Y3	Z3	X4	Y4	Z4	X5	Y5	Z5	X6	Y6	Z6	X7	Y7	Z7	X8	Y8	Z8	X9	Y9	Z9	X10	Y10	Z10	X11	Y11	Z11	X12	Y12	Z12	X13	Y13	Z13	X14	Y14	Z14	X15	Y15	Z15	X16	Y16	Z16	X17	Y17	Z17	X18	Y18	Z18	X19	Y19	Z19	X20	Y20	Z20	X21	Y21	Z21	X22	Y22	Z22	X23	Y23	Z23	X24	Y24	Z24	X25	Y25	Z25	X26	Y26	Z26	X27	Y27	Z27	X28	Y28	Z28	X29	Y29	Z29	X30	Y30	Z30	X31	Y31	Z31	X32	Y32	Z32	X33	Y33	Z33	X34	Y34	Z34	X35	Y35	Z35	X36	Y36	Z36	X37	Y37	Z37	X38	Y38	Z38	X39	Y39	Z39	

196	0.975	778.713134765625	1457.262817382812	-446.1129455566406	846.2914428710938	1426.523315429688	-143.3682708740234	747.8070678710938	990.2166137695312	-450.7152404785156	777.6246948242188	963.43505859375	-150.0895080566406	807.6574096679688	941.9605712890624	-436.53857421875	565.063720703125	474.38818359375	-339.0600891113281	832.1012573242188	915.58935546875	-178.0255737304688	691.0154418945312	865.4688720703125	-460.4906921386719	676.6136474609375	871.1851196289062	-152.43505859375	673.85009765625	1020.169006347656	-288.4002990722656	925.4693603515624	712.2196044921875	-469.5096130371094	754.438232421875	515.3152465820312	-438.7862243652344	856.6494140625	663.85400390625	-475.6315002441406	983.0028076171876	627.2915649414062	-453.7916259765625	481.9740600585938	63.34807586669922	-182.4568939208984	848.5903930664062	543.3558959960938	-458.2243957519531	910.8877563476562	580.684326171875	-453.4273681640625	741.4319458007812	601.9277954101562	-161.1108245849609	653.5426025390625	244.2109832763672	-378.7161560058594	666.739990234375	623.9042358398438	-153.6548156738281	709.73095703125	507.2859497070312	-185.8647003173828	634.4891967773438	533.5064086914062	-173.7021942138672	963.8028564453124	553.7650146484375	-456.1827392578125	648.2932739257812	482.8707580566406	-173.6003570556641	872.3328247070312	469.2064819335938	-444.3156433105469	777.31640625	440.9872131347656	-430.0491638183594	614.5095825195312	360.7647399902344	-177.4959564208984	608.6640014648438	291.2669067382812	-430.3542785644531	550.5339965820312	406.3619689941406	-159.150390625	542.7507934570312	453.8281555175781	-313.6656494140625	555.5534057617188	278.5176086425781	-187.0718994140625	493.3184509277344	325.6027526855469	-171.1744995117188	599.0128173828125	426.1780090332031	-403.2255249023438	411.0361022949219	152.2690734863281	-206.4103698730469	548.0509643554688	52.04867935180664	-245.8746948242188	334.6394348144531	157.0543365478516	-263.0248107910156	340.2537231445312	125.2338180541992	-290.4804992675781	324.1270751953125	132.0790863037109	-237.6626434326172	533.3497314453125	460.5011291503906	-368.0390014648438
197	0.98	796.3115234375	1462.064453125	-446.2723388671875	867.9664306640625	1432.248291015625	-145.5050506591797	769.8400268554688	996.0011596679688	-451.0899658203125	801.5875244140625	967.2305297851562	-151.3582458496094	829.4359130859375	947.7853393554688	-437.21044921875	593.2979125976562	460.8607482910156	-339.0077209472656	854.7118530273438	918.9640502929688	-179.659423828125	714.2019653320312	871.652587890625	-463.0547180175781	698.6868286132812	876.404541015625	-153.1601715087891	696.0755615234375	1024.948608398438	-287.9387512207031	949.7194213867188	719.7301025390625	-468.9342956542969	780.9212036132812	512.0029907226562	-437.9223327636719	881.2868041992188	670.6328735351562	-475.5479125976562	1008.126892089844	635.7277221679688	-452.776611328125	484.9511108398438	64.5048599243164	-180.9983673095703	873.927490234375	544.6403198242188	-456.8529663085938	936.2572631835938	588.2275390625	-452.6892700195312	756.3945922851562	607.1480712890625	-162.5999908447266	695.0862426757812	236.4083099365234	-379.5906982421875	682.6490478515625	631.3577270507812	-153.2148590087891	721.9659423828125	513.8541870117188	-185.8249816894531	647.603515625	542.4354248046875	-172.0920562744141	988.6279296875	561.564208984375	-454.6753845214844	658.7303466796875	490.9172058105469	-172.4466552734375	901.066650390625	471.781982421875	-443.4530334472656	807.8527221679688	438.4778442382812	-429.4214172363281	623.4920043945312	369.7424621582031	-174.7676849365234	648.1288452148438	280.7737731933594	-430.8572082519531	559.2752685546875	415.3556518554688	-157.3660583496094	572.0787353515625	439.5995178222656	-313.7069091796875	564.4158935546875	287.1431579589844	-184.0423431396484	501.8630676269531	334.6742248535156	-169.5122375488281	630.254150390625	414.4244384765625	-403.2419128417969	419.7146301269531	159.3287353515625	-204.5326843261719	550.464599609375	51.71024322509766	-244.2738037109375	344.177490234375	167.9248657226562	-261.7436218261719	348.6617736816406	136.5070190429688	-289.8697509765625	332.8586730957031	143.0906219482422	-237.0867919921875	562.4826049804688	445.0141296386719	-368.433837890625
198	0.985	814.0535888671875	1466.946166992188	-446.2681274414062	889.3781127929688	1437.630859375	-147.2710723876953	791.208984375	1002.363647460938	-452.4745483398438	825.8707275390625	971.3915405273438	-152.6159362792969	851.0283813476562	953.2530517578124	-437.9689025878906	622.0014038085938	446.9701843261719	-339.1650390625	877.7418823242188	922.567138671875	-180.8679809570312	737.3536987304688	877.5925903320312	-464.9650268554688	720.4409790039062	881.5218505859375	-153.8354797363281	718.52001953125	1029.371337890625	-287.1746520996094	973.608154296875	727.1478271484375	-468.7935791015625	808.1600952148438	507.3701782226562	-438.03369140625	906.4063720703124	677.5967407226562	-477.1681823730469	1032.31591796875	643.3380126953125	-451.4604187011719	488.3268432617188	66.05583953857422	-179.1450653076172	898.642822265625	545.6321411132812	-455.4601135253906	961.4019775390624	595.451416015625	-452.6572875976562	772.2274780273438	612.8775024414062	-162.7745666503906	736.9275512695312	228.8300933837891	-379.9132690429688	699.021484375	639.59814453125	-152.6454162597656	735.1798095703125	520.36279296875	-185.8418273925781	661.5715942382812	550.9237670898438	-170.6319122314453	1013.527709960938	568.379150390625	-453.6363525390625	670.6701049804688	498.9752197265625	-171.0188446044922	929.801513671875	474.4854736328125	-443.2037658691406	838.0060424804688	436.2074890136719	-429.1130065917969	634.357666015625	378.3609619140625	-170.6553039550781	687.6509399414062	270.6995239257812	-431.2181091308594	568.8560180664062	424.3049926757812	-155.6107482910156	603.2727661132812	424.4362487792969	-315.3624877929688	574.0882568359375	295.591552734375	-181.1976165771484	511.5797729492188	343.7650756835938	-167.5497283935547	661.9070434570312	402.8401184082031	-402.8528442382812	429.1750793457031	166.7938232421875	-202.5106506347656	553.8447875976562	51.66432189941406	-242.4826049804688	355.1708679199219	179.5442199707031	-260.5380249023438	358.4122924804688	148.4185638427734	-289.0440063476562	342.0701293945312	155.2641754150391	-236.4988250732422	592.4927978515625	429.4096374511719	-368.374267578125
199	0.99	832.1098022460938	1471.6806640625	-446.1469116210938	910.5965576171876	1442.92724609375	-149.1598510742188	813.1251220703125	1008.222106933594	-453.0770568847656	849.4266357421875	975.0486450195312	-154.1407012939453	872.8212280273438	958.6943359375	-438.746826171875	651.8941040039062	432.9255981445312	-338.7197265625	900.284423828125	925.8400268554688	-182.7423095703125	760.4556274414062	883.386962890625	-466.9349060058594	742.3883056640625	888.2978515625	-153.3912200927734	740.768310546875	1033.943969726562	-287.1255187988281	997.5610961914062	733.7313842773438	-468.2728881835938	834.13916015625	503.8387451171875	-437.2230834960938	930.1380615234376	683.7841796875	-476.2728576660156	1056.769775390625	650.5162353515625	-450.8895263671875	491.9289245605469	67.48448944091797	-177.9293365478516	923.5840454101562	546.4664306640625	-454.880126953125	985.845947265625	601.8767700195312	-452.5081176757812	788.6219482421875	618.4871826171875	-162.2756500244141	778.7847290039062	221.7738647460938	-380.6320190429688	715.7301025390625	646.81787109375	-151.9320678710938	748.7896118164062	526.6997680664062	-185.0137481689453	676.1712036132812	558.91748046875	-169.3528594970703	1037.639038085938	574.933349609375	-452.7001342773438	683.4871215820312	507.1436157226562	-169.7873229980469	958.2708129882812	475.4659423828125	-442.26708984375	868.26025390625	433.9449462890625	-428.8042297363281	643.4049072265625	388.2832336425781	-169.4047546386719	726.9879760742188	260.6270141601562	-431.8456726074219	578.616455078125	433.6821594238281	-154.2246398925781	634.2149047851562	409.0481567382812	-315.2452087402344	584.79443359375	304.6766357421875	-178.0462951660156	521.7152709960938	352.2081604003906	-165.9187316894531	694.4317626953125	391.4435729980469	-402.8311462402344	440.0376892089844	174.2945404052734	-200.5724487304688	557.777099609375	51.2747802734375	-240.8246459960938	371.9797058105469	193.6850433349609	-257.8401184082031	369.970703125	161.0551147460938	-287.7311706542969	353.3451843261719	167.9794769287109	-235.6676330566406	623.383544921875	413.8721923828125	-368.3706665039062
